<svg xmlns="http://www.w3.org/2000/svg" viewBox="0 0 32 32" role="img" aria-label="Montenegro Guidebook — флаг Черногории">
  <rect width="32" height="32" rx="6" fill="#C40308"/>
  <rect x="2.3" y="2.3" width="27.4" height="27.4" rx="4.2" fill="none" stroke="#D9B34A" stroke-width="2.1"/>
  <g fill="#D9B34A" transform="translate(16 16) scale(1.06) translate(-24 -15.15)">
    <path d="M20.8 7.6h6.4l-1 2.6h-4.4z"/>
    <circle cx="20.2" cy="12.1" r="1.6"/>
    <circle cx="27.8" cy="12.1" r="1.6"/>
    <path d="M24 11.6c-3.1 1-6.2 1.6-8.3 3.7 2.1 0 3.2.4 4.2 1.3-1.7 1-2.8 2.5-3.2 4.4 2.1-1.5 3.8-1.9 5.2-1.7v3.7h4.2v-3.7c1.4-.2 3.1.2 5.2 1.7-.4-1.9-1.5-3.4-3.2-4.4 1-.9 2.1-1.3 4.2-1.3-2.1-2.1-5.2-2.7-8.3-3.7z"/>
    <rect x="22.1" y="18.4" width="3.8" height="3.4" rx="0.4" fill="#C40308"/>
  </g>
</svg>
