<svg xmlns="http://www.w3.org/2000/svg" viewBox="0 0 120 120" role="img" aria-label="Знак качества">
  <defs>
    <radialGradient id="gC" cx="50%" cy="34%" r="72%">
      <stop offset="0" stop-color="#F7DF9A"/>
      <stop offset=".55" stop-color="#D8B05A"/>
      <stop offset="1" stop-color="#A67E2E"/>
    </radialGradient>
  </defs>
  <circle cx="60" cy="60" r="57" fill="#6e2639" stroke="url(#gC)" stroke-width="4"/>
  <g fill="none" stroke="url(#gC)" stroke-width="3.4" stroke-linecap="round">
    <path d="M40 86 C28 74 26 56 33 40"/>
    <path d="M80 86 C92 74 94 56 87 40"/>
  </g>
  <g stroke="url(#gC)" stroke-width="2.4" stroke-linecap="round">
    <path d="M34 50 l-7 -3M33 60 l-8 -1M35 70 l-8 2M40 79 l-7 4"/>
    <path d="M86 50 l7 -3M87 60 l8 -1M85 70 l8 2M80 79 l7 4"/>
  </g>
  <path d="M60 36 l6.6 13.4 14.8 2.1-10.7 10.4 2.5 14.7L60 63.9 46.8 70.7l2.5-14.7-10.7-10.4 14.8-2.1Z" fill="url(#gC)"/>
</svg>
